<svg xmlns="http://www.w3.org/2000/svg" version="1.1" xmlns:xlink="http://www.w3.org/1999/xlink" xmlns:svgjs="http://svgjs.dev/svgjs" width="1500" height="397" viewBox="0 0 1500 397"><g transform="matrix(1,0,0,1,-0.9084522071641459,-0.050480556480295036)"><svg viewBox="0 0 396 105" data-background-color="#ffffff" preserveAspectRatio="xMidYMid meet" height="397" width="1500" xmlns="http://www.w3.org/2000/svg" xmlns:xlink="http://www.w3.org/1999/xlink"><g id="tight-bounds" transform="matrix(1,0,0,1,0.24008861730862918,0.013599409654091232)"><svg viewBox="0 0 395.52 104.97304930966469" height="104.97304930966469" width="395.52"><g><svg viewBox="0 0 395.52 104.97304930966469" height="104.97304930966469" width="395.52"><g><svg viewBox="0 0 395.52 104.97304930966469" height="104.97304930966469" width="395.52"><g id="textblocktransform"><svg viewBox="0 0 395.52 104.97304930966469" height="104.97304930966469" width="395.52" id="textblock"><g><svg viewBox="0 0 395.52 104.97304930966469" height="104.97304930966469" width="395.52"><path d="M394.594 22.515C392.735 11.619 387.435 8.589 387.435 8.589 371.165-2.634 350.86-0.215 332.619 1.398 300.414 1.463 268.339 3.86 236.208 5.146 168.767 5.342 100.749 2.117 33.643 10.071 27.339 12.512-6.54 10.551 1.121 23.909 3.129 29.466 10.456 35.634 10.232 40.733 11.236 41.627 12.631 39.578 13.226 40.864 15.309 44.329 18.711 42.694 21.501 44.743 17.614 50.213 20.403 54.767 23.062 59.54 18.377 60.782 12.371 60.194 9.675 64.312 9.396 67.298 7.89 66.731 6.235 66.601 5.026 66.513 2.59 66.84 2.999 67.777 4.394 70.981-1.594 72.833 2.162 75.971-0.422 79.371 3.948 82.313 3.353 85.996 3.278 86.737 3.687 87.369 4.338 87.543 7.22 88.48 3.018 90.311 3.464 92.294 33.029 105.849 65.104 96.478 95.394 102.71 103.259 98.352 97.346 104.258 100.489 103.342 102.943 102.275 104.728 106.698 107.499 104.192 107.927 103.473 107.276 101.773 108.8 102.1 109.6 102.275 110.307 102.231 110.418 101.229 110.586 99.725 109.117 100.662 108.726 99.877 112.947 95.911 111.906 105.347 115.866 104.955 115.68 103.8 114.528 102.144 116.889 102.362 119.232 100.706 119.306 99.333 121.389 103.059 121.463 103.865 121.835 104.432 122.43 104.824 128.938 100.771 135.409 106.263 142.233 104.432 146.417 102.427 150.433 105.522 154.672 104.759 156.16 104.149 157.666 103.059 159.098 104.89 176.632 105.282 195.319 103.648 211.943 104.955 256.364 102.514 303.836 105.958 350.674 102.732 361.719 101.49 373.192 99.725 383.958 98.308 383.958 98.308 392.679 94.429 392.679 76.996S394.538 61.741 394.817 47.859C395.096 33.977 396.398 33.411 394.538 22.515Z" opacity="1" fill="#77d4fc" data-fill-palette-color="tertiary"></path><g transform="matrix(1,0,0,1,55.76832,26.230666666666668)"><svg width="283.98335999999995" viewBox="3 -37.5 270.37 50" height="52.51171597633135" data-palette-color="#ffffff"><path d="M6.25-37.5L6.25-23Q9.2-25.45 12.95-25.45L12.95-25.45Q19.35-25.45 21.9-19.8L21.9-19.8Q22.9-17.5 22.9-13.85L22.9-13.85Q22.9-7.1 19.35-3.55 15.8 0 10.15 0L10.15 0Q6.85 0 5.13-0.45 3.4-0.9 3-1.15L3-1.15 3-37.25 6.25-37.5ZM6.25-21.25L6.25-21.25 6.25-2.8Q7.7-2.45 9.4-2.45L9.4-2.45Q14.4-2.45 17.03-5.35 19.65-8.25 19.65-13.5 19.65-18.75 17-21L17-21Q15.15-22.55 12.2-22.55 9.25-22.55 6.25-21.25ZM30.2 0L26.95 0 26.95-37.25 30.2-37.5 30.2 0ZM35.65-6.4L35.65-6.4Q34.75-8.8 34.75-12L34.75-12Q34.75-18.15 38.2-21.68 41.65-25.2 46.85-25.2L46.85-25.2Q55-25.2 57.55-18.6L57.55-18.6Q58.5-16.2 58.5-13L58.5-13Q58.5-6.85 55.05-3.33 51.6 0.2 46.4 0.2L46.4 0.2Q38.25 0.2 35.65-6.4ZM38-12.35Q38-7.75 40.37-5.23 42.75-2.7 46.5-2.7 50.25-2.7 52.75-5.38 55.25-8.05 55.25-12.65 55.25-17.25 52.9-19.78 50.55-22.3 46.77-22.3 43-22.3 40.5-19.63 38-16.95 38-12.35ZM65.84-9.65L65.84-9.65Q62.14-11.5 62.14-16.6L62.14-16.6Q62.14-20.8 65.04-23 67.94-25.2 72.44-25.2L72.44-25.2Q73.64-25.2 75.39-24.95L75.39-24.95 84.79-25.2 84.69-23.3 79.24-23.3Q81.99-21.25 81.99-17.13 81.99-13 79.24-10.78 76.49-8.55 72.14-8.55L72.14-8.55Q69.34-8.55 67.49-9.05L67.49-9.05Q66.54-8.15 66.54-6.95L66.54-6.95Q66.54-5.25 68.42-4.5 70.29-3.75 72.84-3.4L72.84-3.4Q78.49-2.65 80.99-1.3L80.99-1.3Q84.59 0.7 84.59 4.85 84.59 9 80.64 11L80.64 11Q77.64 12.5 73.39 12.5 69.14 12.5 66.84 11.85L66.84 11.85Q60.79 10.1 60.79 5.35 60.79 0.6 66.14-2.7L66.14-2.7Q64.04-4.25 64.04-6.3 64.04-8.35 65.84-9.65ZM81.34 4.8L81.34 4.8Q81.34 1.55 77.04 0.3L77.04 0.3Q75.84-0.05 72.74-0.55 69.64-1.05 67.89-1.75L67.89-1.75Q64.04 1.45 64.04 4.45L64.04 4.45Q64.04 5.75 64.44 6.6 64.84 7.45 65.84 8.1L65.84 8.1Q68.04 9.6 72.54 9.6L72.54 9.6Q78.44 9.6 80.54 7.1L80.54 7.1Q81.34 6.15 81.34 4.8ZM78.59-17.25L78.59-17.25Q78.59-22.55 72.29-22.55L72.29-22.55Q69.29-22.55 67.34-21.18 65.39-19.8 65.39-16.98 65.39-14.15 66.79-12.68 68.19-11.2 71.52-11.2 74.84-11.2 76.72-12.8 78.59-14.4 78.59-17.25ZM103.44-24.5L102.64-21.7Q100.84-22.3 97.74-22.3 94.64-22.3 92.94-21.2 91.24-20.1 91.24-18.48 91.24-16.85 92.24-16.1 93.24-15.35 94.74-14.83 96.24-14.3 98.02-13.8 99.79-13.3 101.29-12.5L101.29-12.5Q104.79-10.7 104.79-7.15 104.79-3.6 102.37-1.7 99.94 0.2 95.29 0.2L95.29 0.2Q92.94 0.2 90.77-0.28 88.59-0.75 87.44-1.6L87.44-1.6 88.54-4.25Q89.69-3.25 93.19-2.8L93.19-2.8Q94.29-2.65 95.44-2.65L95.44-2.65Q98.04-2.65 99.79-3.73 101.54-4.8 101.54-7L101.54-7Q101.54-8.5 100.54-9.35 99.54-10.2 98.04-10.78 96.54-11.35 94.77-11.8 92.99-12.25 91.49-12.98 89.99-13.7 88.99-14.88 87.99-16.05 87.99-18.05L87.99-18.05Q87.99-21.3 90.49-23.25 92.99-25.2 97.19-25.2L97.19-25.2Q98.24-25.2 99.34-25.08 100.44-24.95 101.34-24.85L101.34-24.85 103.44-24.5ZM109.59-28.85Q109.59-29.45 109.56-30.05 109.54-30.65 109.54-31.3L109.54-31.3 117.54-33.1 120.69-33.1 120.69 0 117.54 0 117.54-30.65 109.59-28.85ZM136.24-5.9L136.24-5.9Q138.84-2.55 143.09-2.55L143.09-2.55Q147.19-2.55 150.06-6.48 152.94-10.4 152.94-17.32 152.94-24.25 150.14-27.95L150.14-27.95Q146.04-31.2 143.09-31.65L143.09-31.65Q138.99-31.65 136.11-27.7 133.24-23.75 133.24-16.78 133.24-9.8 136.24-5.9ZM129.84-16.73Q129.84-25.1 133.69-29.75 137.54-34.4 143.09-34.4L143.09-34.4Q148.84-34.4 152.59-30.03 156.34-25.65 156.34-17.38 156.34-9.1 152.49-4.45 148.64 0.2 143.09 0.2L143.09 0.2Q137.29 0.2 133.79-3.8L133.79-3.8Q129.84-8.35 129.84-16.73ZM159.83-28.85Q159.83-29.45 159.81-30.05 159.78-30.65 159.78-31.3L159.78-31.3 167.78-33.1 170.93-33.1 170.93 0 167.78 0 167.78-30.65 159.83-28.85ZM183.63 0.4Q182.78 0.4 182.41-0.1 182.03-0.6 182.03-1.5 182.03-2.4 182.51-2.95 182.98-3.5 183.93-3.5L183.93-3.5Q185.53-3.5 185.53-1.45L185.53-1.45Q185.53-0.6 185.01-0.1 184.48 0.4 183.63 0.4ZM201.33-3.6L201.93-0.9Q201.03 0 198.68 0L198.68 0Q195.38 0 194.23-1.7L194.23-1.7Q192.28-3.55 192.28-6.7L192.28-6.7 192.28-22.1 189.48-22.1 189.93-25 192.28-25 192.28-29.95 195.53-30.25 195.53-25 201.33-25 201.33-22.1 195.53-22.1 195.53-5.9Q195.53-3 198.53-3L198.53-3Q199.83-3 201.33-3.6L201.33-3.6ZM207.88-12.3L207.88-11.5Q207.88-2.7 216.28-2.7L216.28-2.7Q219.83-2.7 222.78-3.65L222.78-3.65Q223.53-3.9 223.83-4.05L223.83-4.05 224.58-1.4Q222.83-0.35 218.23 0.1L218.23 0.1Q216.93 0.2 215.48 0.2L215.48 0.2Q211.28 0.2 208.48-1.9L208.48-1.9Q204.63-4.75 204.63-11.4 204.63-18.05 208.1-21.63 211.58-25.2 216.53-25.2 221.48-25.2 223.98-22L223.98-22Q225.88-19.45 225.88-15.25L225.88-15.25Q225.88-14.25 225.78-13.15L225.78-13.15 207.93-13.15Q207.88-12.75 207.88-12.3L207.88-12.3ZM216.73-22.1L216.73-22.1Q213.63-22.1 211.43-20.23 209.23-18.35 208.38-15.4L208.38-15.4 222.93-15.4Q222.68-20.95 218.63-21.85L218.63-21.85Q217.73-22.1 216.73-22.1ZM246.37-16.4L246.12-21.65Q244.07-22.3 241.92-22.3L241.92-22.3Q237.57-22.3 234.95-19.5 232.32-16.7 232.32-11.6L232.32-11.6Q232.32-2.7 240.57-2.7L240.57-2.7Q243.87-2.7 247.37-3.8L247.37-3.8Q248.07-4 248.22-4.1L248.22-4.1 249.02-1.4Q247.27-0.35 242.67 0.1L242.67 0.1Q241.37 0.2 239.92 0.2L239.92 0.2Q235.67 0.2 232.92-1.9L232.92-1.9Q229.07-4.8 229.07-11.45 229.07-18.1 232.65-21.68 236.22-25.25 241.87-25.25L241.87-25.25Q243.67-25.25 245.7-24.78 247.72-24.3 248.82-23.3L248.82-23.3 248.82-16.75 246.37-16.4ZM257.27-37.5L257.27-22.15Q261.22-25 264.87-25.15L264.87-25.15Q267.97-25.15 269.62-24.4 271.27-23.65 272.32-22.28 273.37-20.9 273.37-18.4L273.37-18.4 273.37 0 270.12 0 270.12-17.55Q270.12-19.4 269.32-20.4L269.32-20.4Q267.72-22.25 264.42-22.25L264.42-22.25Q261.17-22.1 257.27-20.15L257.27-20.15 257.27 0 254.02 0 254.02-37.25 257.27-37.5Z" opacity="1" transform="matrix(1,0,0,1,0,0)" fill="#ffffff" class="wordmark-text-0" data-fill-palette-color="quaternary" id="text-0"></path></svg></g></svg></g></svg></g></svg></g><g></g></svg></g><defs></defs></svg><rect width="395.52" height="104.97304930966469" fill="none" stroke="none" visibility="hidden"></rect></g></svg></g></svg>